# Wavefront Obj file
# 
# verts: 124 uv-s: 216
mtllib Crate_5_0.mtl

g ChamferBox001

v 13.211901 -7.970400 15.005000
v 13.211901 12.029601 15.005000
v -21.788099 12.029601 15.005000
v -21.788099 -7.970400 15.005000
v -21.788099 13.279601 14.670100
v -22.413099 13.112100 14.670100
v -22.870600 12.654601 14.670100
v -23.038099 12.029601 14.670100
v -23.038099 -7.970400 14.670100
v -22.870600 -8.595400 14.670100
v -22.413099 -9.053000 14.670100
v -21.788099 -9.220400 14.670100
v 13.211901 -9.220400 14.670100
v 13.836901 -9.053000 14.670100
v 14.294401 -8.595400 14.670100
v 14.461901 -7.970400 14.670100
v 14.461901 12.029601 14.670100
v 14.294401 12.654601 14.670100
v 13.836901 13.112100 14.670100
v 13.211901 13.279601 14.670100
v -22.870600 13.904601 13.755000
v -21.788099 14.194600 13.755000
v -23.663099 13.112100 13.755000
v -23.953100 12.029601 13.755000
v -23.953100 -7.970400 13.755000
v -23.663099 -9.053000 13.755000
v -22.870600 -9.845400 13.755000
v -21.788099 -10.135500 13.755000
v 13.211901 -10.135500 13.755000
v 14.294401 -9.845400 13.755000
v 15.086901 -9.053000 13.755000
v 15.377001 -7.970400 13.755000
v 15.377001 12.029601 13.755000
v 15.086901 13.112100 13.755000
v 14.294401 13.904601 13.755000
v 13.211901 14.194600 13.755000
v -23.038099 14.194600 12.505000
v -21.788099 14.529601 12.505000
v -23.953100 13.279601 12.505000
v -24.288099 12.029601 12.505000
v -24.288099 -7.970400 12.505000
v -23.953100 -9.220400 12.505000
v -23.038099 -10.135500 12.505000
v -21.788099 -10.470400 12.505000
v 13.211901 -10.470400 12.505000
v 14.461901 -10.135500 12.505000
v 15.377001 -9.220400 12.505000
v 15.711901 -7.970400 12.505000
v 15.711901 12.029601 12.505000
v 15.377001 13.279601 12.505000
v 14.461901 14.194600 12.505000
v 13.211901 14.529601 12.505000
v -23.038099 14.194600 2.505000
v -21.788099 14.529601 2.505000
v -23.953100 13.279601 2.505000
v -24.288099 12.029601 2.505000
v -24.288099 -7.970400 2.505000
v -23.953100 -9.220400 2.505000
v -23.038099 -10.135500 2.505000
v -21.788099 -10.470400 2.505000
v 14.461901 -10.135500 2.505000
v 13.211901 -10.470400 2.505000
v 15.377001 -9.220400 2.505000
v 15.711901 -7.970400 2.505000
v 15.711901 12.029601 2.505000
v 15.377001 13.279601 2.505000
v 14.461901 14.194600 2.505000
v 13.211901 14.529601 2.505000
v -22.870600 13.904601 1.255000
v -21.788099 14.194600 1.255000
v -23.663099 13.112100 1.255000
v -23.953100 12.029601 1.255000
v -23.953100 -7.970400 1.255000
v -23.663099 -9.053000 1.255000
v -22.870600 -9.845400 1.255000
v -21.788099 -10.135500 1.255000
v 13.211901 -10.135500 1.255000
v 14.294401 -9.845400 1.255000
v 15.086901 -9.053000 1.255000
v 15.377001 -7.970400 1.255000
v 15.377001 12.029601 1.255000
v 15.086901 13.112100 1.255000
v 14.294401 13.904601 1.255000
v 13.211901 14.194600 1.255000
v -22.413099 13.112100 0.339900
v -21.788099 13.279601 0.339900
v -22.870600 12.654601 0.339900
v -23.038099 12.029601 0.339900
v -23.038099 -7.970400 0.339900
v -22.870600 -8.595400 0.339900
v -22.413099 -9.053000 0.339900
v -21.788099 -9.220400 0.339900
v 13.211901 -9.220400 0.339900
v 13.836901 -9.053000 0.339900
v 14.294401 -8.595400 0.339900
v 14.461901 -7.970400 0.339900
v 14.461901 12.029601 0.339900
v 14.294401 12.654601 0.339900
v 13.836901 13.112100 0.339900
v 13.211901 13.279601 0.339900
v -21.788099 12.029601 0.005000
v -21.788099 -7.970400 0.005000
v 13.211901 -7.970400 0.005000
v 13.211901 12.029601 0.005000
# 104 positions

vt 0.030100 0.191400
vt 0.030100 0.030100
vt 0.312500 0.030100
vt 0.312500 0.191400
vt 0.312500 0.020000
vt 0.317500 0.021400
vt 0.321200 0.025000
vt 0.322500 0.030100
vt 0.322500 0.191400
vt 0.321200 0.196500
vt 0.317500 0.200200
vt 0.312500 0.201500
vt 0.030100 0.201500
vt 0.025000 0.200200
vt 0.021400 0.196500
vt 0.020000 0.191400
vt 0.020000 0.030100
vt 0.021400 0.025000
vt 0.025000 0.021400
vt 0.030100 0.020000
vt 0.366500 0.251500
vt 0.370200 0.244100
vt 0.375200 0.244100
vt 0.375200 0.251500
vt 0.877700 0.475600
vt 0.874000 0.468200
vt 0.877700 0.468200
vt 0.884100 0.475600
vt 0.868900 0.475600
vt 0.868900 0.468200
vt 0.707600 0.475600
vt 0.707600 0.468200
vt 0.698800 0.475600
vt 0.702500 0.468200
vt 0.692400 0.475600
vt 0.698800 0.468200
vt 0.637400 0.475600
vt 0.637400 0.468200
vt 0.642500 0.468200
vt 0.646200 0.475600
vt 0.355100 0.475600
vt 0.355100 0.468200
vt 0.346300 0.475600
vt 0.350000 0.468200
vt 0.897800 0.251500
vt 0.894100 0.244100
vt 0.897800 0.244100
vt 0.904200 0.251500
vt 0.889100 0.251500
vt 0.889100 0.244100
vt 0.727700 0.251500
vt 0.727700 0.244100
vt 0.719000 0.251500
vt 0.722700 0.244100
vt 0.712600 0.251500
vt 0.719000 0.244100
vt 0.657600 0.251500
vt 0.657600 0.244100
vt 0.662600 0.244100
vt 0.666300 0.251500
vt 0.365100 0.261600
vt 0.375200 0.261600
vt 0.879000 0.485700
vt 0.886400 0.485700
vt 0.868900 0.485700
vt 0.707600 0.485700
vt 0.697500 0.485700
vt 0.690100 0.485700
vt 0.637400 0.485700
vt 0.647500 0.485700
vt 0.355100 0.485700
vt 0.345000 0.485700
vt 0.899200 0.261600
vt 0.906600 0.261600
vt 0.889100 0.261600
vt 0.727700 0.261600
vt 0.717700 0.261600
vt 0.710300 0.261600
vt 0.657600 0.261600
vt 0.667700 0.261600
vt 0.365100 0.342300
vt 0.375200 0.342300
vt 0.879000 0.566400
vt 0.886400 0.566400
vt 0.868900 0.566400
vt 0.707600 0.566400
vt 0.697500 0.566400
vt 0.690100 0.566400
vt 0.637400 0.566400
vt 0.647500 0.566400
vt 0.345000 0.566400
vt 0.355100 0.566400
vt 0.899200 0.342300
vt 0.906600 0.342300
vt 0.889100 0.342300
vt 0.727700 0.342300
vt 0.717700 0.342300
vt 0.710300 0.342300
vt 0.657600 0.342300
vt 0.667700 0.342300
vt 0.366500 0.352300
vt 0.375200 0.352300
vt 0.877700 0.576500
vt 0.884100 0.576500
vt 0.868900 0.576500
vt 0.707600 0.576500
vt 0.698800 0.576500
vt 0.692400 0.576500
vt 0.637400 0.576500
vt 0.646200 0.576500
vt 0.355100 0.576500
vt 0.346300 0.576500
vt 0.897800 0.352300
vt 0.904200 0.352300
vt 0.889100 0.352300
vt 0.727700 0.352300
vt 0.719000 0.352300
vt 0.712600 0.352300
vt 0.657600 0.352300
vt 0.666300 0.352300
vt 0.370200 0.359700
vt 0.375200 0.359700
vt 0.874000 0.583900
vt 0.877700 0.583900
vt 0.868900 0.583900
vt 0.707600 0.583900
vt 0.702500 0.583900
vt 0.698800 0.583900
vt 0.637400 0.583900
vt 0.642500 0.583900
vt 0.355100 0.583900
vt 0.350000 0.583900
vt 0.894100 0.359700
vt 0.897800 0.359700
vt 0.889100 0.359700
vt 0.727700 0.359700
vt 0.722700 0.359700
vt 0.719000 0.359700
vt 0.657600 0.359700
vt 0.662600 0.359700
vt 0.312500 0.425600
vt 0.312500 0.415600
vt 0.317500 0.424300
vt 0.321200 0.420600
vt 0.322500 0.415600
vt 0.312500 0.254200
vt 0.322500 0.254200
vt 0.321200 0.249200
vt 0.317500 0.245500
vt 0.312500 0.244100
vt 0.030100 0.254200
vt 0.030100 0.244100
vt 0.025000 0.245500
vt 0.021400 0.249200
vt 0.020000 0.254200
vt 0.030100 0.415600
vt 0.020000 0.415600
vt 0.021400 0.420600
vt 0.025000 0.424300
vt 0.030100 0.425600
# 160 texture coordinates

vn 0.130823 -0.130823 0.982736
vn 0.130827 0.130827 0.982735
vn -0.130827 0.130827 0.982735
vn -0.130823 -0.130823 0.982736
vn -0.066273 0.498030 0.864624
vn -0.249117 0.431481 0.867044
vn -0.431481 0.249117 0.867044
vn -0.498030 0.066272 0.864624
vn -0.498029 -0.066269 0.864625
vn -0.431484 -0.249106 0.867045
vn -0.249110 -0.431476 0.867048
vn -0.066261 -0.498018 0.864631
vn 0.066261 -0.498019 0.864631
vn 0.249110 -0.431476 0.867048
vn 0.431476 -0.249114 0.867047
vn 0.498009 -0.066278 0.864635
vn 0.498010 0.066281 0.864634
vn 0.431472 0.249124 0.867046
vn 0.249117 0.431481 0.867044
vn 0.066273 0.498030 0.864624
vn -0.432519 0.749149 0.501700
vn -0.113701 0.859927 0.497591
vn -0.749149 0.432519 0.501701
vn -0.859928 0.113701 0.497591
vn -0.859929 -0.113695 0.497590
vn -0.749151 -0.432515 0.501701
vn -0.432519 -0.749149 0.501700
vn -0.113702 -0.859930 0.497587
vn 0.113702 -0.859930 0.497587
vn 0.432511 -0.749150 0.501705
vn 0.749136 -0.432527 0.501712
vn 0.859926 -0.113705 0.497592
vn 0.859925 0.113711 0.497593
vn 0.749134 0.432532 0.501712
vn 0.432511 0.749150 0.501705
vn 0.113701 0.859927 0.497591
vn -0.495724 0.858594 0.130669
vn -0.129512 0.983084 0.129512
vn -0.858594 0.495724 0.130669
vn -0.983084 0.129511 0.129511
vn -0.983084 -0.129509 0.129509
vn -0.858602 -0.495710 0.130666
vn -0.495720 -0.858596 0.130670
vn -0.172308 -0.969856 0.172308
vn 0.172308 -0.969856 0.172308
vn 0.495701 -0.858606 0.130676
vn 0.858600 -0.495711 0.130674
vn 0.983089 -0.129490 0.129490
vn 0.983089 0.129493 0.129493
vn 0.858592 0.495725 0.130677
vn 0.495706 0.858604 0.130675
vn 0.129512 0.983084 0.129512
vn -0.495724 0.858594 -0.130669
vn -0.129512 0.983084 -0.129512
vn -0.858594 0.495724 -0.130669
vn -0.983084 0.129511 -0.129511
vn -0.983084 -0.129509 -0.129509
vn -0.858602 -0.495710 -0.130666
vn -0.495720 -0.858596 -0.130670
vn -0.172308 -0.969856 -0.172308
vn 0.495701 -0.858606 -0.130676
vn 0.172308 -0.969856 -0.172308
vn 0.858601 -0.495711 -0.130674
vn 0.983089 -0.129490 -0.129490
vn 0.983089 0.129493 -0.129493
vn 0.858592 0.495725 -0.130677
vn 0.495706 0.858604 -0.130675
vn 0.129512 0.983084 -0.129512
vn -0.432519 0.749149 -0.501700
vn -0.113701 0.859927 -0.497591
vn -0.749149 0.432519 -0.501700
vn -0.859928 0.113701 -0.497591
vn -0.859929 -0.113695 -0.497590
vn -0.749151 -0.432515 -0.501700
vn -0.432519 -0.749149 -0.501700
vn -0.113702 -0.859930 -0.497587
vn 0.113702 -0.859930 -0.497587
vn 0.432511 -0.749150 -0.501705
vn 0.749136 -0.432527 -0.501712
vn 0.859926 -0.113705 -0.497592
vn 0.859925 0.113711 -0.497593
vn 0.749134 0.432532 -0.501712
vn 0.432511 0.749150 -0.501705
vn 0.113701 0.859927 -0.497591
vn -0.249117 0.431481 -0.867044
vn -0.066273 0.498030 -0.864624
vn -0.431481 0.249117 -0.867044
vn -0.498030 0.066272 -0.864624
vn -0.498029 -0.066269 -0.864625
vn -0.431484 -0.249106 -0.867045
vn -0.249111 -0.431476 -0.867048
vn -0.066261 -0.498018 -0.864631
vn 0.066261 -0.498018 -0.864631
vn 0.249111 -0.431476 -0.867048
vn 0.431476 -0.249114 -0.867047
vn 0.498009 -0.066278 -0.864635
vn 0.498010 0.066281 -0.864635
vn 0.431472 0.249124 -0.867046
vn 0.249117 0.431481 -0.867044
vn 0.066273 0.498030 -0.864624
vn -0.130827 0.130827 -0.982735
vn -0.130823 -0.130823 -0.982736
vn 0.130823 -0.130823 -0.982736
vn 0.130827 0.130827 -0.982735
# 104 normals

usemtl wire_196088225
f 1/1/1 2/2/2 3/3/3 4/4/4
f 3/3/3 5/5/5 6/6/6
f 3/3/3 6/6/6 7/7/7
f 3/3/3 7/7/7 8/8/8
f 9/9/9 4/4/4 3/3/3 8/8/8
f 4/4/4 9/9/9 10/10/10
f 4/4/4 10/10/10 11/11/11
f 4/4/4 11/11/11 12/12/12
f 13/13/13 1/1/1 4/4/4 12/12/12
f 1/1/1 13/13/13 14/14/14
f 1/1/1 14/14/14 15/15/15
f 1/1/1 15/15/15 16/16/16
f 17/17/17 2/2/2 1/1/1 16/16/16
f 2/2/2 17/17/17 18/18/18
f 2/2/2 18/18/18 19/19/19
f 2/2/2 19/19/19 20/20/20
f 5/5/5 3/3/3 2/2/2 20/20/20
f 21/21/21 6/22/6 5/23/5 22/24/22
f 23/25/23 7/26/7 6/27/6 21/28/21
f 24/29/24 8/30/8 7/26/7 23/25/23
f 25/31/25 9/32/9 8/30/8 24/29/24
f 26/33/26 10/34/10 9/32/9 25/31/25
f 27/35/27 11/36/11 10/34/10 26/33/26
f 28/37/28 12/38/12 11/39/11 27/40/27
f 29/41/29 13/42/13 12/38/12 28/37/28
f 30/43/30 14/44/14 13/42/13 29/41/29
f 31/45/31 15/46/15 14/47/14 30/48/30
f 32/49/32 16/50/16 15/46/15 31/45/31
f 33/51/33 17/52/17 16/50/16 32/49/32
f 34/53/34 18/54/18 17/52/17 33/51/33
f 35/55/35 19/56/19 18/54/18 34/53/34
f 36/57/36 20/58/20 19/59/19 35/60/35
f 22/24/22 5/23/5 20/58/20 36/57/36
f 37/61/37 21/21/21 22/24/22 38/62/38
f 39/63/39 23/25/23 21/28/21 37/64/37
f 40/65/40 24/29/24 23/25/23 39/63/39
f 41/66/41 25/31/25 24/29/24 40/65/40
f 42/67/42 26/33/26 25/31/25 41/66/41
f 43/68/43 27/35/27 26/33/26 42/67/42
f 44/69/44 28/37/28 27/40/27 43/70/43
f 45/71/45 29/41/29 28/37/28 44/69/44
f 46/72/46 30/43/30 29/41/29 45/71/45
f 47/73/47 31/45/31 30/48/30 46/74/46
f 48/75/48 32/49/32 31/45/31 47/73/47
f 49/76/49 33/51/33 32/49/32 48/75/48
f 50/77/50 34/53/34 33/51/33 49/76/49
f 51/78/51 35/55/35 34/53/34 50/77/50
f 52/79/52 36/57/36 35/60/35 51/80/51
f 38/62/38 22/24/22 36/57/36 52/79/52
f 53/81/53 37/61/37 38/62/38 54/82/54
f 55/83/55 39/63/39 37/64/37 53/84/53
f 56/85/56 40/65/40 39/63/39 55/83/55
f 57/86/57 41/66/41 40/65/40 56/85/56
f 58/87/58 42/67/42 41/66/41 57/86/57
f 59/88/59 43/68/43 42/67/42 58/87/58
f 60/89/60 44/69/44 43/70/43 59/90/59
f 61/91/61 46/72/46 45/71/45 62/92/62
f 63/93/63 47/73/47 46/74/46 61/94/61
f 64/95/64 48/75/48 47/73/47 63/93/63
f 65/96/65 49/76/49 48/75/48 64/95/64
f 66/97/66 50/77/50 49/76/49 65/96/65
f 67/98/67 51/78/51 50/77/50 66/97/66
f 68/99/68 52/79/52 51/80/51 67/100/67
f 54/82/54 38/62/38 52/79/52 68/99/68
f 69/101/69 53/81/53 54/82/54 70/102/70
f 71/103/71 55/83/55 53/84/53 69/104/69
f 72/105/72 56/85/56 55/83/55 71/103/71
f 73/106/73 57/86/57 56/85/56 72/105/72
f 74/107/74 58/87/58 57/86/57 73/106/73
f 75/108/75 59/88/59 58/87/58 74/107/74
f 76/109/76 60/89/60 59/90/59 75/110/75
f 77/111/77 62/92/62 60/89/60 76/109/76
f 78/112/78 61/91/61 62/92/62 77/111/77
f 79/113/79 63/93/63 61/94/61 78/114/78
f 80/115/80 64/95/64 63/93/63 79/113/79
f 81/116/81 65/96/65 64/95/64 80/115/80
f 82/117/82 66/97/66 65/96/65 81/116/81
f 83/118/83 67/98/67 66/97/66 82/117/82
f 84/119/84 68/99/68 67/100/67 83/120/83
f 70/102/70 54/82/54 68/99/68 84/119/84
f 85/121/85 69/101/69 70/102/70 86/122/86
f 87/123/87 71/103/71 69/104/69 85/124/85
f 88/125/88 72/105/72 71/103/71 87/123/87
f 89/126/89 73/106/73 72/105/72 88/125/88
f 90/127/90 74/107/74 73/106/73 89/126/89
f 91/128/91 75/108/75 74/107/74 90/127/90
f 92/129/92 76/109/76 75/110/75 91/130/91
f 93/131/93 77/111/77 76/109/76 92/129/92
f 94/132/94 78/112/78 77/111/77 93/131/93
f 95/133/95 79/113/79 78/114/78 94/134/94
f 96/135/96 80/115/80 79/113/79 95/133/95
f 97/136/97 81/116/81 80/115/80 96/135/96
f 98/137/98 82/117/82 81/116/81 97/136/97
f 99/138/99 83/118/83 82/117/82 98/137/98
f 100/139/100 84/119/84 83/120/83 99/140/99
f 86/122/86 70/102/70 84/119/84 100/139/100
f 86/141/86 101/142/101 85/143/85
f 85/143/85 101/142/101 87/144/87
f 87/144/87 101/142/101 88/145/88
f 102/146/102 89/147/89 88/145/88 101/142/101
f 89/147/89 102/146/102 90/148/90
f 90/148/90 102/146/102 91/149/91
f 91/149/91 102/146/102 92/150/92
f 103/151/103 93/152/93 92/150/92 102/146/102
f 93/152/93 103/151/103 94/153/94
f 94/153/94 103/151/103 95/154/95
f 95/154/95 103/151/103 96/155/96
f 104/156/104 97/157/97 96/155/96 103/151/103
f 97/157/97 104/156/104 98/158/98
f 98/158/98 104/156/104 99/159/99
f 99/159/99 104/156/104 100/160/100
f 101/142/101 86/141/86 100/160/100 104/156/104
f 102/146/102 101/142/101 104/156/104 103/151/103

g Object001

v 13.211901 -30.676201 2.505000
v 13.211901 -30.676201 12.505000
v -21.788099 -30.676201 12.505000
v -21.788099 -30.676201 2.505000
v 13.211901 -8.176200 2.505000
v -21.788099 -8.176200 2.505000
v -21.788099 -8.176200 12.505000
v 13.211901 -8.176200 12.505000
v -19.788099 -10.176200 3.632200
v -19.788099 -28.676201 3.632200
v 11.211901 -28.676201 3.632200
v 11.211901 -10.176200 3.632200
v 12.211901 -29.676201 12.505000
v -20.788099 -29.676201 12.505000
v 12.211901 -9.176200 12.505000
v -20.788099 -9.176200 12.505000
v 12.211901 -29.676201 4.632200
v -20.788099 -29.676201 4.632200
v 12.211901 -9.176200 4.632200
v -20.788099 -9.176200 4.632200
# 20 positions

vt 0.345000 0.707100
vt 0.345000 0.626500
vt 0.627300 0.626500
vt 0.627300 0.707100
vt 0.956300 0.100700
vt 0.674000 0.100700
vt 0.674000 0.020000
vt 0.956300 0.020000
vt 0.345000 0.855800
vt 0.526500 0.855800
vt 0.526500 0.936500
vt 0.345000 0.936500
vt 0.302400 0.468200
vt 0.302400 0.649800
vt 0.020000 0.649800
vt 0.020000 0.468200
vt 0.851500 0.707100
vt 0.669900 0.707100
vt 0.669900 0.626500
vt 0.851500 0.626500
vt 0.623300 0.028100
vt 0.623300 0.177300
vt 0.373200 0.177300
vt 0.373200 0.028100
vt 0.302400 0.873900
vt 0.020000 0.873900
vt 0.028100 0.865800
vt 0.294300 0.865800
vt 0.020000 0.692400
vt 0.028100 0.700400
vt 0.302400 0.692400
vt 0.294300 0.700400
vt 0.345000 0.749700
vt 0.611200 0.749700
vt 0.611200 0.813200
vt 0.345000 0.813200
vt 0.777100 0.855800
vt 0.942500 0.855800
vt 0.942500 0.919400
vt 0.777100 0.919400
vt 0.020000 0.916500
vt 0.286200 0.916500
vt 0.286200 0.980000
vt 0.020000 0.980000
vt 0.569100 0.855800
vt 0.734500 0.855800
vt 0.734500 0.919400
vt 0.569100 0.919400
vt 0.631400 0.185400
vt 0.365100 0.185400
vt 0.785100 0.927400
vt 0.934400 0.927400
vt 0.365100 0.020000
vt 0.631400 0.020000
vt 0.577200 0.927400
vt 0.726400 0.927400
# 56 texture coordinates

vn 0.000000 -1.000000 0.000000
vn 0.000000 1.000000 0.000000
vn -1.000000 0.000000 0.000000
vn 0.000000 0.000000 -1.000000
vn 1.000000 0.000000 0.000000
vn 0.270598 -0.270598 0.923880
vn 0.270598 0.270598 0.923880
vn -0.270598 0.270598 0.923880
vn -0.270598 -0.270598 0.923880
vn 0.000000 0.000000 1.000000
vn 0.707107 0.707107 0.000000
vn -0.707107 0.707107 0.000000
vn -0.610131 0.610131 0.505450
vn 0.610131 0.610131 0.505450
vn -0.707107 -0.707107 0.000000
vn -0.610131 -0.610131 0.505450
vn 0.707107 -0.707107 0.000000
vn 0.610131 -0.610131 0.505450
# 18 normals

usemtl wire_196088225
f 105/161/105 106/162/105 107/163/105 108/164/105
f 109/165/106 110/166/106 111/167/106 112/168/106
f 107/169/107 111/170/107 110/171/107 108/172/107
f 108/173/108 110/174/108 109/175/108 105/176/108
f 105/177/109 109/178/109 112/179/109 106/180/109
f 113/181/110 114/182/111 115/183/112 116/184/113
f 107/185/114 106/186/114 117/187/114 118/188/114
f 106/186/114 112/189/114 119/190/114 117/187/114
f 112/189/114 111/191/114 120/192/114 119/190/114
f 111/191/114 107/185/114 118/188/114 120/192/114
f 118/193/115 117/194/116 121/195/117 122/196/118
f 117/197/116 119/198/119 123/199/120 121/200/117
f 119/201/119 120/202/121 124/203/122 123/204/120
f 120/205/121 118/206/115 122/207/118 124/208/122
f 114/182/111 122/209/118 121/210/117 115/183/112
f 115/211/112 121/200/117 123/199/120 116/212/113
f 116/184/113 123/213/120 124/214/122 113/181/110
f 113/215/110 124/208/122 122/207/118 114/216/111

# 131 faces
