# Wavefront Obj file
# 
# verts: 134 uv-s: 260
mtllib Crate_3_1.mtl

g ChamferBox001

v -8.758200 -3.420200 20.004999
v -6.493900 -3.420200 20.004999
v -6.493900 4.081100 20.004999
v -8.758200 4.081100 20.004999
v -8.758200 10.330400 13.755700
v -15.007500 4.081100 13.755700
v -15.007500 -3.420200 13.755700
v -8.758200 -9.669600 13.755700
v -6.493900 -9.669600 13.755700
v 18.743099 -3.420200 20.004999
v 18.743099 -9.669600 13.755700
v 24.992500 -3.420200 13.755700
v 24.992500 4.081100 13.755700
v 18.743099 4.081100 20.004999
v 18.743099 10.330400 13.755700
v 16.478800 10.330400 13.755700
v 16.478800 4.081100 20.004999
v -15.007500 4.081100 8.254300
v -15.007500 4.081100 11.755700
v -10.172400 8.916200 11.755700
v -10.172400 8.916200 8.254300
v -15.007500 -3.420200 8.254300
v -15.007500 -3.420200 11.755700
v -10.172400 -8.255400 8.254300
v -10.172400 -8.255400 11.755700
v 18.743099 -9.669600 6.254300
v 16.478800 -9.669600 13.755700
v 16.478800 -9.669600 7.808200
v -8.758200 -9.669600 6.254300
v -6.493900 -9.669600 7.808200
v 24.992500 -3.420200 8.254300
v 24.992500 -3.420200 11.755700
v 20.157301 -8.255400 11.755700
v 20.157301 -8.255400 8.254300
v 24.992500 4.081100 8.254300
v 24.992500 4.081100 11.755700
v 20.157301 8.916200 8.254300
v 20.157301 8.916200 11.755700
v -8.758200 10.330400 6.254300
v -6.493900 10.330400 13.755700
v -6.493900 10.330400 7.808200
v 18.743099 10.330400 6.254300
v 16.478800 10.330400 7.808200
v -8.758200 4.081100 0.005000
v -15.007500 4.081100 6.254300
v -8.758200 -3.420200 0.005000
v -15.007500 -3.420200 6.254300
v -5.258200 -7.194700 3.779500
v -5.258200 -3.420200 0.005000
v 15.243100 -3.420200 0.005000
v 15.243100 -7.194700 3.779500
v 18.743099 -3.420200 0.005000
v 24.992500 -3.420200 6.254300
v 18.743099 4.081100 0.005000
v 24.992500 4.081100 6.254300
v 15.243100 7.855500 3.779500
v 15.243100 4.081100 0.005000
v -5.258200 4.081100 0.005000
v -5.258200 7.855500 3.779500
v 16.478800 -3.420200 20.004999
v -8.812800 -6.209900 11.128900
v -8.812800 6.870700 11.128900
v -8.812800 2.731000 16.382401
v -8.812800 -2.070200 16.382401
v -8.812800 -6.209900 9.055200
v -8.812800 6.870700 9.055200
v 15.554100 -6.209900 5.750900
v 15.554100 6.870700 5.750900
v -5.508600 6.870700 5.750900
v -5.508600 -6.209900 5.750900
v 18.858299 -6.209900 11.128900
v 18.858299 6.870700 11.128900
v 18.858299 6.870700 9.055200
v 18.858299 -6.209900 9.055200
v 18.858299 -2.070200 16.382401
v 18.858299 2.731000 16.382401
v -6.493900 -2.716100 18.305000
v -6.493900 3.376900 18.305000
v -6.493900 -7.969601 13.051500
v -6.493900 -7.969601 7.808200
v 16.478800 -7.969601 7.808200
v 16.478800 -7.969601 13.051500
v 16.478800 -2.716100 18.305000
v 16.478800 3.376900 18.305000
v 16.478800 8.630400 13.051500
v 16.478800 8.630400 7.808200
v -6.493900 8.630400 7.808200
v -6.493900 8.630400 13.051500
# 88 positions

vt 0.587600 0.893300
vt 0.565000 0.893300
vt 0.565000 0.818400
vt 0.587600 0.818400
vt 0.082400 0.262800
vt 0.082400 0.325200
vt 0.020000 0.325200
vt 0.650000 0.893300
vt 0.650000 0.818400
vt 0.357100 0.020000
vt 0.419500 0.082400
vt 0.357100 0.082400
vt 0.334400 0.082400
vt 0.334400 0.020000
vt 0.082400 0.020000
vt 0.082400 0.082400
vt 0.020000 0.082400
vt 0.882700 0.505600
vt 0.945100 0.505600
vt 0.945100 0.580500
vt 0.882700 0.580500
vt 0.357100 0.262800
vt 0.419500 0.325200
vt 0.357100 0.325200
vt 0.334400 0.325200
vt 0.334400 0.262800
vt 0.020000 0.380200
vt 0.020000 0.345200
vt 0.068300 0.345200
vt 0.068300 0.380200
vt 0.980000 0.282800
vt 0.980000 0.317700
vt 0.905100 0.317700
vt 0.905100 0.282800
vt 0.371200 0.137400
vt 0.371200 0.102400
vt 0.419500 0.102400
vt 0.419500 0.137400
vt 0.082400 0.157300
vt 0.105000 0.082400
vt 0.105000 0.141800
vt 0.357100 0.157300
vt 0.334400 0.141800
vt 0.020000 0.137400
vt 0.020000 0.102400
vt 0.068300 0.102400
vt 0.068300 0.137400
vt 0.827800 0.505600
vt 0.862700 0.505600
vt 0.862700 0.580500
vt 0.827800 0.580500
vt 0.371200 0.380200
vt 0.371200 0.345200
vt 0.419500 0.345200
vt 0.419500 0.380200
vt 0.082400 0.400100
vt 0.105000 0.325200
vt 0.105000 0.384600
vt 0.357100 0.400100
vt 0.334400 0.384600
vt 0.082400 0.462500
vt 0.020000 0.400100
vt 0.799600 0.262800
vt 0.862000 0.262800
vt 0.862000 0.337700
vt 0.799600 0.337700
vt 0.419500 0.157300
vt 0.357100 0.219700
vt 0.322100 0.182000
vt 0.322100 0.219700
vt 0.117400 0.219700
vt 0.117400 0.182000
vt 0.082400 0.219700
vt 0.020000 0.157300
vt 0.525000 0.337700
vt 0.462500 0.337700
vt 0.462500 0.262800
vt 0.525000 0.262800
vt 0.419500 0.400100
vt 0.357100 0.462500
vt 0.322100 0.424800
vt 0.322100 0.462500
vt 0.117400 0.462500
vt 0.117400 0.424800
vt 0.764600 0.262800
vt 0.764600 0.337700
vt 0.559900 0.337700
vt 0.559900 0.262800
vt 0.837500 0.670500
vt 0.912400 0.670500
vt 0.912400 0.693100
vt 0.837500 0.693100
vt 0.105000 0.020000
vt 0.105000 0.262800
vt 0.185200 0.774700
vt 0.054600 0.774700
vt 0.095900 0.722200
vt 0.143800 0.722200
vt 0.185200 0.795400
vt 0.054600 0.795400
vt 0.471800 0.185200
vt 0.471800 0.054600
vt 0.682100 0.054600
vt 0.682100 0.185200
vt 0.769600 0.108600
vt 0.900200 0.108600
vt 0.900200 0.129400
vt 0.769600 0.129400
vt 0.810900 0.056200
vt 0.858900 0.056200
vt 0.082400 0.686000
vt 0.157300 0.686000
vt 0.150300 0.703000
vt 0.089400 0.703000
vt 0.219700 0.748400
vt 0.202800 0.755500
vt 0.219700 0.807800
vt 0.202800 0.807800
vt 0.692000 0.219700
vt 0.462500 0.219700
vt 0.462500 0.202800
vt 0.692000 0.202800
vt 0.735000 0.141800
vt 0.735000 0.082400
vt 0.752000 0.089400
vt 0.752000 0.141800
vt 0.797400 0.020000
vt 0.804500 0.037000
vt 0.872400 0.020000
vt 0.865300 0.037000
vt 0.934800 0.082400
vt 0.917800 0.089400
vt 0.934800 0.141800
vt 0.917800 0.141800
vt 0.462500 0.020000
vt 0.692000 0.020000
vt 0.692000 0.037000
vt 0.462500 0.037000
vt 0.020000 0.807800
vt 0.020000 0.748400
vt 0.037000 0.755500
vt 0.037000 0.807800
vt 0.735000 0.380800
vt 0.964500 0.380800
vt 0.955200 0.401300
vt 0.744900 0.401300
vt 0.693100 0.818400
vt 0.922500 0.818400
vt 0.912700 0.838900
vt 0.702300 0.838900
vt 0.185200 0.828400
vt 0.054600 0.828400
vt 0.769600 0.162400
vt 0.900200 0.162400
vt 0.905100 0.262800
vt 0.980000 0.262800
vt 0.980000 0.337700
vt 0.905100 0.337700
vt 0.807800 0.580500
vt 0.807800 0.505600
# 160 texture coordinates

vn 0.000000 0.000000 1.000000
vn -0.577350 0.577350 0.577350
vn -0.707107 0.000000 0.707107
vn -0.577353 -0.577344 0.577353
vn 0.000000 -0.707101 0.707112
vn 0.577347 -0.577347 0.577357
vn 0.707101 0.000000 0.707113
vn 0.577344 0.577353 0.577353
vn 0.000000 0.707107 0.707107
vn 0.000000 0.707107 0.707107
vn -0.707107 0.707107 -0.000000
vn -1.000000 0.000000 0.000000
vn -0.707112 -0.707102 -0.000000
vn 0.000000 -1.000000 0.000000
vn 0.707107 -0.707107 -0.000000
vn 1.000000 0.000000 0.000000
vn 0.707102 0.707112 0.000000
vn 0.000000 1.000000 0.000000
vn -0.577350 0.577350 -0.577350
vn -0.707107 0.000000 -0.707107
vn -0.577353 -0.577344 -0.577353
vn -0.000001 -0.707101 -0.707112
vn 0.577347 -0.577347 -0.577356
vn 0.707101 0.000000 -0.707112
vn 0.577344 0.577353 -0.577353
vn -0.000002 0.707108 -0.707106
vn 0.000000 0.000000 -1.000000
vn 0.000000 -0.707101 0.707112
vn 0.917550 0.373812 -0.135520
vn 0.917550 -0.373812 -0.135520
vn 0.861650 -0.201568 -0.465757
vn 0.861650 0.201568 -0.465757
vn 0.853740 0.343742 0.391113
vn 0.853740 -0.343742 0.391113
vn -0.386596 0.336060 0.858841
vn -0.386596 -0.336060 0.858840
vn 0.388146 -0.330632 0.860247
vn 0.388146 0.330632 0.860247
vn -0.915137 0.378936 -0.137594
vn -0.915137 -0.378936 -0.137594
vn -0.850830 -0.351921 0.390178
vn -0.850830 0.351921 0.390178
vn -0.857289 0.204647 -0.472414
vn -0.857289 -0.204647 -0.472414
vn 1.000000 0.000000 0.000000
vn -1.000000 0.000000 0.000000
vn -1.000000 0.000000 0.000000
vn 0.695114 -0.285529 -0.659765
vn 0.695114 0.285529 -0.659765
vn 0.670781 0.697249 -0.252776
vn 0.471534 0.734091 0.488637
vn -0.464045 0.741369 0.484803
vn -0.661277 0.705098 -0.256025
vn -0.685813 0.289291 -0.667811
vn -0.685813 -0.289291 -0.667811
vn -0.661277 -0.705098 -0.256025
vn -0.464045 -0.741370 0.484803
vn 0.471534 -0.734091 0.488637
vn 0.670781 -0.697249 -0.252776
vn 0.000008 0.707104 -0.707109
vn 0.000008 -0.707103 -0.707110
vn -0.707107 0.707107 0.000000
vn -0.707113 -0.707100 0.000005
vn 0.707107 -0.707107 0.000000
vn 0.707100 0.707113 -0.000004
# 65 normals

usemtl wire_027177148
f 1/1/1 2/2/1 3/3/1 4/4/1
f 4/5/2 5/6/2 6/7/2
f 7/8/3 1/1/3 4/4/3 6/9/3
f 1/10/4 7/11/4 8/12/4
f 8/12/5 9/13/5 2/14/5 1/10/5
f 10/15/6 11/16/6 12/17/6
f 13/18/7 14/19/7 10/20/7 12/21/7
f 14/22/8 13/23/8 15/24/8
f 15/24/9 16/25/9 17/26/9 14/22/10
f 18/27/11 19/28/11 20/29/11 21/30/11
f 22/31/12 23/32/12 19/33/12 18/34/12
f 24/35/13 25/36/13 23/37/13 22/38/13
f 26/39/14 11/16/14 27/40/14 28/41/14
f 29/42/14 26/39/14 28/41/14 30/43/14
f 29/42/14 30/43/14 9/13/14 8/12/14
f 31/44/15 32/45/15 33/46/15 34/47/15
f 35/48/16 36/49/16 32/50/16 31/51/16
f 37/52/17 38/53/17 36/54/17 35/55/17
f 39/56/18 5/6/18 40/57/18 41/58/18
f 42/59/18 39/56/18 41/58/18 43/60/18
f 42/59/18 43/60/18 16/25/18 15/24/18
f 39/56/19 44/61/19 45/62/19
f 46/63/20 47/64/20 45/65/20 44/66/20
f 47/67/21 46/68/21 29/42/21
f 48/69/22 49/70/22 50/71/22 51/72/22
f 26/39/23 52/73/23 53/74/23
f 54/75/24 55/76/24 53/77/24 52/78/24
f 55/79/25 54/80/25 42/59/25
f 56/81/26 57/82/26 58/83/26 59/84/26
f 49/85/27 58/86/27 57/87/27 50/88/27
f 10/89/1 14/90/1 17/91/1 60/92/1
f 11/16/28 10/15/5 60/93/28 27/40/28
f 5/6/10 4/5/10 3/94/10 40/57/10
f 61/95/29 62/96/30 63/97/31 64/98/32
f 65/99/33 66/100/34 62/96/30 61/95/29
f 67/101/35 68/102/36 69/103/37 70/104/38
f 71/105/39 72/106/40 73/107/41 74/108/42
f 75/109/43 76/110/44 72/106/40 71/105/39
f 3/111/45 2/112/16 77/113/16 78/114/45
f 2/112/16 9/115/16 79/116/16 77/113/16
f 9/115/16 30/117/16 80/118/16 79/116/16
f 30/119/1 28/120/1 81/121/1 80/122/1
f 28/123/12 27/124/12 82/125/12 81/126/12
f 27/124/12 60/127/46 83/128/46 82/125/12
f 60/127/46 17/129/47 84/130/47 83/128/46
f 17/129/47 16/131/12 85/132/12 84/130/47
f 16/131/12 43/133/12 86/134/12 85/132/12
f 43/135/1 41/136/1 87/137/1 86/138/1
f 41/139/16 40/140/16 88/141/16 87/142/16
f 40/140/16 3/111/45 78/114/45 88/141/16
f 78/114/48 77/113/49 64/98/32 63/97/31
f 77/113/49 79/116/50 61/95/29 64/98/32
f 79/116/50 80/118/51 65/99/33 61/95/29
f 80/143/51 81/144/52 67/145/35 70/146/38
f 81/126/52 82/125/53 71/105/39 74/108/42
f 82/125/53 83/128/54 75/109/43 71/105/39
f 83/128/54 84/130/55 76/110/44 75/109/43
f 84/130/55 85/132/56 72/106/40 76/110/44
f 85/132/56 86/134/57 73/107/41 72/106/40
f 86/147/57 87/148/58 69/149/37 68/150/36
f 87/142/58 88/141/59 62/96/30 66/100/34
f 88/141/59 78/114/48 63/97/31 62/96/30
f 80/118/51 70/151/38 65/99/33
f 87/142/58 66/100/34 69/152/37
f 65/99/33 70/151/38 69/152/37 66/100/34
f 81/126/52 74/108/42 67/153/35
f 86/134/57 68/154/36 73/107/41
f 67/153/35 74/108/42 73/107/41 68/154/36
f 44/61/60 39/56/60 59/84/26 58/83/26
f 39/56/60 42/59/26 56/81/26 59/84/26
f 42/59/26 54/80/26 57/82/26 56/81/26
f 54/75/27 52/78/27 50/88/27 57/87/27
f 52/73/22 26/39/22 51/72/22 50/71/22
f 26/39/22 29/42/22 48/69/22 51/72/22
f 29/42/22 46/68/61 49/70/22 48/69/22
f 46/63/27 44/66/27 58/86/27 49/85/27
f 6/7/62 5/6/62 20/29/11 19/28/11
f 5/6/62 39/56/11 21/30/11 20/29/11
f 39/56/11 45/62/11 18/27/11 21/30/11
f 45/155/12 47/156/12 22/31/12 18/34/12
f 47/67/13 29/42/13 24/35/13 22/38/13
f 29/42/13 8/12/13 25/36/13 24/35/13
f 8/12/13 7/11/63 23/37/13 25/36/13
f 7/157/12 6/158/12 19/33/12 23/32/12
f 12/17/64 11/16/64 33/46/15 32/45/15
f 11/16/64 26/39/15 34/47/15 33/46/15
f 26/39/15 53/74/15 31/44/15 34/47/15
f 53/159/16 55/160/16 35/48/16 31/51/16
f 55/79/17 42/59/17 37/52/17 35/55/17
f 42/59/17 15/24/17 38/53/17 37/52/17
f 15/24/17 13/23/65 36/54/17 38/53/17
f 13/18/16 12/21/16 32/50/16 36/49/16

g Object001

v -6.493900 19.125299 20.856701
v -6.493900 19.125299 14.763700
v 16.478800 19.125299 14.763700
v 16.478800 19.125299 20.856701
v -6.493900 13.871800 26.110201
v 16.478800 13.871800 26.110201
v 16.478800 13.871800 9.510200
v -6.493900 13.871800 9.510200
v 16.478800 8.628500 26.110201
v -6.493900 8.628500 26.110201
v -6.493900 9.328500 9.510200
v 16.478800 9.328500 9.510200
v -6.493900 20.825300 14.059500
v -6.493900 20.825300 21.560900
v -6.493900 14.575900 27.810200
v -6.493900 8.628500 27.810200
v 16.478800 8.628500 27.810200
v 16.478800 14.575900 27.810200
v 16.478800 20.825300 21.560900
v 16.478800 20.825300 14.059500
v 16.478800 14.575900 7.810200
v 16.478800 8.628500 8.510200
v 16.478800 8.706300 9.199100
v 16.478800 8.628500 8.810200
v 16.478800 8.939600 9.432400
v 16.478800 8.706300 8.121300
v 16.478800 8.939600 7.888000
v 16.478800 9.328500 7.810200
v -6.493900 8.628500 8.810200
v -6.493900 8.628500 8.510200
v -6.493900 8.939600 9.432400
v -6.493900 8.706300 9.199100
v -6.493900 9.328500 7.810200
v -6.493900 14.575900 7.810200
v -6.493900 8.939600 7.888000
v -6.493900 8.706300 8.121300
v -5.274000 14.575900 27.810200
v -5.274000 9.850600 27.810200
v 15.227800 9.850400 27.810301
v 15.227800 14.575800 27.810301
v -5.274000 20.825300 21.560900
v 15.227800 20.825100 21.560900
v -5.274000 20.825300 14.059500
v 15.227800 20.825100 14.059600
v -5.274000 15.440100 8.674400
v 15.227800 15.439900 8.674400
# 46 positions

vt 0.521900 0.670500
vt 0.521900 0.731300
vt 0.292500 0.731300
vt 0.292500 0.670500
vt 0.565000 0.723000
vt 0.565000 0.670500
vt 0.794400 0.670500
vt 0.794400 0.723000
vt 0.292500 0.783800
vt 0.521900 0.783800
vt 0.794400 0.775300
vt 0.565000 0.775300
vt 0.249400 0.871400
vt 0.249400 0.916800
vt 0.020000 0.916800
vt 0.020000 0.871400
vt 0.429800 0.826900
vt 0.422800 0.843900
vt 0.361900 0.843900
vt 0.354900 0.826900
vt 0.309500 0.896300
vt 0.292500 0.889300
vt 0.309500 0.948700
vt 0.292500 0.948700
vt 0.964500 0.444400
vt 0.964500 0.461400
vt 0.735000 0.461400
vt 0.735000 0.444400
vt 0.764700 0.627400
vt 0.747700 0.627400
vt 0.747700 0.575100
vt 0.764700 0.568000
vt 0.695300 0.522600
vt 0.702300 0.505600
vt 0.634400 0.522600
vt 0.627400 0.505600
vt 0.582000 0.575100
vt 0.565000 0.568000
vt 0.582000 0.620400
vt 0.572000 0.627400
vt 0.578900 0.626600
vt 0.575000 0.627400
vt 0.581200 0.624300
vt 0.568100 0.626600
vt 0.565800 0.624300
vt 0.565000 0.620400
vt 0.735000 0.212300
vt 0.735000 0.209300
vt 0.964500 0.209300
vt 0.964500 0.212300
vt 0.476000 0.945600
vt 0.475300 0.941700
vt 0.475300 0.896300
vt 0.478400 0.947900
vt 0.482200 0.948700
vt 0.492200 0.941700
vt 0.492200 0.889300
vt 0.491500 0.945600
vt 0.489100 0.947900
vt 0.485200 0.948700
vt 0.509700 0.568000
vt 0.509700 0.615200
vt 0.305000 0.615200
vt 0.305000 0.568000
vt 0.509700 0.505600
vt 0.305000 0.505600
vt 0.237200 0.568000
vt 0.237200 0.642900
vt 0.032500 0.642900
vt 0.032500 0.568000
vt 0.237200 0.514200
vt 0.032500 0.514200
vt 0.462500 0.433200
vt 0.462500 0.380800
vt 0.692000 0.380800
vt 0.692000 0.433200
vt 0.964500 0.216200
vt 0.735000 0.216200
vt 0.249400 0.920700
vt 0.020000 0.920700
vt 0.462500 0.437100
vt 0.692000 0.437100
vt 0.692000 0.439400
vt 0.462500 0.439400
vt 0.249400 0.923000
vt 0.020000 0.923000
vt 0.735000 0.205400
vt 0.964500 0.205400
vt 0.249400 0.642900
vt 0.249400 0.568000
vt 0.249400 0.505600
vt 0.020000 0.505600
vt 0.020000 0.568000
vt 0.020000 0.642900
vt 0.292500 0.505600
vt 0.292500 0.568000
vt 0.292500 0.627400
vt 0.521900 0.627400
vt 0.521900 0.568000
vt 0.521900 0.505600
# 100 texture coordinates

vn 0.000000 -0.923880 -0.382683
vn 0.000000 -0.923880 0.382683
vn 0.000000 -0.382683 -0.923880
vn 0.000000 -0.382683 0.923880
vn 0.000000 0.000000 -1.000000
vn 0.000000 -0.098562 0.995131
vn -1.000000 0.000000 0.000000
vn -1.000000 0.000000 0.000000
vn 0.000000 -1.000000 0.000000
vn 1.000000 0.000000 0.000000
vn 1.000000 0.000000 0.000000
vn 1.000000 0.000000 0.000000
vn 1.000000 0.000000 0.000000
vn 0.000000 -0.995131 -0.098562
vn 0.000000 -0.995131 0.098562
vn -1.000000 0.000000 0.000000
vn -1.000000 0.000000 0.000000
vn -0.000002 -0.000014 1.000000
vn 0.000002 0.707104 0.707110
vn 0.000005 1.000000 0.000000
vn 0.000007 0.707102 -0.707111
vn 0.000000 -0.098562 -0.995131
vn 0.000000 -0.881663 -0.471880
vn 0.000000 -0.471880 0.881663
vn 0.000000 -0.707106 -0.707108
vn 0.000000 -0.196164 -0.980571
vn 0.000000 -0.881663 0.471880
vn 0.000003 0.707148 -0.707066
vn -0.000143 0.707104 -0.707110
vn -0.000160 1.000000 0.000000
vn -0.000056 0.707107 0.707107
vn 0.000081 0.000000 1.000000
# 32 normals

usemtl wire_027177148
f 89/161/66 90/162/67 91/163/67 92/164/66
f 93/165/68 89/166/66 92/167/66 94/168/68
f 95/169/69 91/163/67 90/162/67 96/170/69
f 94/168/68 97/171/70 98/172/70 93/165/68
f 96/173/69 99/174/71 100/175/71 95/176/69
f 101/177/72 90/178/72 89/179/73 102/180/73
f 102/180/73 89/179/73 93/181/72 103/182/72
f 103/182/72 93/181/72 98/183/72 104/184/72
f 104/185/74 98/186/74 97/187/74 105/188/74
f 105/189/75 97/190/75 94/191/76 106/192/76
f 106/192/76 94/191/76 92/193/77 107/194/77
f 107/194/77 92/193/77 91/195/78 108/196/78
f 108/196/78 91/195/78 95/197/76 109/198/76
f 109/198/76 95/197/76 100/199/76 110/200/76
f 111/201/76 112/202/76 110/200/76 113/203/76
f 100/199/76 113/203/76 110/200/76
f 109/198/76 110/200/76 114/204/76 115/205/76
f 109/198/76 115/205/76 116/206/76
f 110/207/79 112/208/80 117/209/80 118/210/79
f 119/211/72 99/212/72 96/213/81 120/214/72
f 117/215/82 120/214/72 96/213/81 121/216/81
f 96/213/81 122/217/81 121/216/81
f 117/215/82 121/216/81 123/218/82 124/219/82
f 118/220/82 117/215/82 124/219/82
f 122/217/81 96/213/81 90/178/72 101/177/72
f 125/221/83 126/222/83 127/223/83 128/224/83
f 129/225/84 125/221/84 128/224/84 130/226/84
f 131/227/85 129/228/85 130/229/85 132/230/85
f 133/231/86 131/227/86 132/230/86 134/232/86
f 121/233/87 122/234/70 109/235/70 116/236/87
f 124/237/88 114/238/88 110/207/79 118/210/79
f 119/239/89 113/240/89 100/175/71 99/174/71
f 123/241/90 115/242/90 114/243/88 124/244/88
f 121/233/87 116/236/87 115/242/91 123/241/91
f 120/245/92 111/246/92 113/240/89 119/239/89
f 117/209/80 112/208/80 111/247/92 120/248/92
f 102/249/85 129/228/85 131/227/85 101/250/85
f 101/250/86 131/227/86 133/231/86 122/251/86
f 122/251/93 133/231/93 134/232/93 109/252/93
f 109/252/94 134/232/94 132/230/94 108/253/94
f 108/253/95 132/230/95 130/229/95 107/254/95
f 107/255/96 130/226/96 128/224/96 106/256/96
f 106/256/97 128/224/97 127/223/97 105/257/97
f 105/257/83 127/223/83 126/222/83 104/258/83
f 104/258/83 126/222/83 125/221/83 103/259/83
f 103/259/84 125/221/84 129/225/84 102/260/84

# 138 faces
